<!DOCTYPE svg PUBLIC "-//W3C//DTD SVG 1.1//EN" "http://www.w3.org/Graphics/SVG/1.1/DTD/svg11.dtd">
<!-- Uploaded to: SVG Repo, www.svgrepo.com, Transformed by: SVG Repo Mixer Tools -->
<svg fill="#2f5a74" version="1.1" id="Capa_1" xmlns="http://www.w3.org/2000/svg" xmlns:xlink="http://www.w3.org/1999/xlink" width="800px" height="800px" viewBox="-26.14 -26.14 313.73 313.73" xml:space="preserve" stroke="#2f5a74">
<g id="SVGRepo_bgCarrier" stroke-width="0" transform="translate(2.6144899999999893,2.6144899999999893), scale(0.98)">
<path transform="translate(-26.14, -26.14), scale(19.608125)" fill="#5893a7" d="M9.166.33a2.25 2.25 0 00-2.332 0l-5.25 3.182A2.25 2.25 0 00.5 5.436v5.128a2.25 2.25 0 001.084 1.924l5.25 3.182a2.25 2.25 0 002.332 0l5.25-3.182a2.25 2.25 0 001.084-1.924V5.436a2.25 2.25 0 00-1.084-1.924L9.166.33z" strokewidth="0"/>
</g>
<g id="SVGRepo_tracerCarrier" stroke-linecap="round" stroke-linejoin="round"/>
<g id="SVGRepo_iconCarrier"> <g> <g> <polygon points="130.715,0 241.896,49.567 130.715,108.849 19.558,49.567 "/> <polygon points="2.69,70.547 117.49,131.772 117.49,259.299 2.69,179.111 "/> <polygon points="258.759,193.378 143.947,261.449 143.947,131.772 258.759,70.547 "/> </g> </g> </g>
</svg>