<!DOCTYPE svg PUBLIC "-//W3C//DTD SVG 1.1//EN" "http://www.w3.org/Graphics/SVG/1.1/DTD/svg11.dtd">
<!-- Uploaded to: SVG Repo, www.svgrepo.com, Transformed by: SVG Repo Mixer Tools -->
<svg width="64px" height="64px" viewBox="-51.2 -51.2 614.40 614.40" id="Layer_1" version="1.1" xml:space="preserve" xmlns="http://www.w3.org/2000/svg" xmlns:xlink="http://www.w3.org/1999/xlink" fill="#000000">
<g id="SVGRepo_bgCarrier" stroke-width="0">
<rect x="-51.2" y="-51.2" width="614.40" height="614.40" rx="61.44" fill="#004d71" strokewidth="0"/>
</g>
<g id="SVGRepo_tracerCarrier" stroke-linecap="round" stroke-linejoin="round"/>
<g id="SVGRepo_iconCarrier"> <style type="text/css"> .st0{fill:#f0f4f8;} .st1{fill:#f0f4f8;} </style> <g> <g> <path class="st0" d="M374.3,268H137.7c-6.6,0-12-5.4-12-12s5.4-12,12-12h236.7c6.6,0,12,5.4,12,12S381,268,374.3,268z"/> </g> </g> <g> <path class="st1" d="M316.6,141.5c-4.4-5-12-5.5-16.9-1.1L268,168.2V54c0-6.6-5.4-12-12-12s-12,5.4-12,12v114.2l-31.7-27.8 c-5-4.4-12.6-3.9-16.9,1.1c-4.4,5-3.9,12.6,1.1,16.9l47.6,41.8c3.4,3,7.6,4.5,11.9,4.5c4.2,0,8.5-1.5,11.9-4.5l47.6-41.8 C320.5,154,321,146.5,316.6,141.5z"/> <path class="st1" d="M315.5,353.6l-47.6-41.8c-6.8-5.9-17-5.9-23.8,0l-47.6,41.8c-5,4.4-5.5,12-1.1,16.9c4.4,5,12,5.5,16.9,1.1 l31.7-27.8V458c0,6.6,5.4,12,12,12s12-5.4,12-12V343.8l31.7,27.8c2.3,2,5.1,3,7.9,3c3.3,0,6.7-1.4,9-4.1 C321,365.5,320.5,358,315.5,353.6z"/> </g> </g>
</svg>