<!DOCTYPE svg PUBLIC "-//W3C//DTD SVG 1.1//EN" "http://www.w3.org/Graphics/SVG/1.1/DTD/svg11.dtd">
<!-- Uploaded to: SVG Repo, www.svgrepo.com, Transformed by: SVG Repo Mixer Tools -->
<svg width="64px" height="64px" viewBox="-4.16 -4.16 24.32 24.32" version="1.1" xmlns="http://www.w3.org/2000/svg" xmlns:xlink="http://www.w3.org/1999/xlink" fill="#000000">
<g id="SVGRepo_bgCarrier" stroke-width="0">
<rect x="-4.16" y="-4.16" width="24.32" height="24.32" rx="2.432" fill="#004d71" strokewidth="0"/>
</g>
<g id="SVGRepo_tracerCarrier" stroke-linecap="round" stroke-linejoin="round"/>
<g id="SVGRepo_iconCarrier"> <title>number_sign [#110]</title> <desc>Created with Sketch.</desc> <defs> </defs> <g id="Page-1" stroke="none" stroke-width="1" fill="none" fill-rule="evenodd"> <g id="Dribbble-Light-Preview" transform="translate(-382.000000, -7721.000000)" fill="#ffffff"> <g id="icons" transform="translate(56.000000, 160.000000)"> <path d="M332,7571 L336,7571 L336,7567 L332,7567 L332,7571 Z M342,7567 L342,7565 L338,7565 L338,7561 L336,7561 L336,7565 L332,7565 L332,7561 L330,7561 L330,7565 L326,7565 L326,7567 L330,7567 L330,7571 L326,7571 L326,7573 L330,7573 L330,7577 L332,7577 L332,7573 L336,7573 L336,7577 L338,7577 L338,7573 L342,7573 L342,7571 L338,7571 L338,7567 L342,7567 Z" id="number_sign-[#110]"> </path> </g> </g> </g> </g>
</svg>